<?xml version="1.0" standalone="no"?>
<!DOCTYPE svg PUBLIC "-//W3C//DTD SVG 20010904//EN"
 "http://www.w3.org/TR/2001/REC-SVG-20010904/DTD/svg10.dtd">
<svg version="1.0" xmlns="http://www.w3.org/2000/svg"
 width="1117.000000pt" height="1117.000000pt" viewBox="0 0 1117.000000 1117.000000"
 preserveAspectRatio="xMidYMid meet">
<metadata>
Created by potrace 1.14, written by Peter Selinger 2001-2017
</metadata>
<g transform="translate(0.000000,1117.000000) scale(0.100000,-0.100000)"
fill="#000000" stroke="none">
<path d="M730 5765 c0 -1725 3 -2165 13 -2166 38 -2 174 0 187 3 9 2 14 -3 12
-11 -2 -11 0 -12 10 -4 7 6 55 12 107 12 52 1 100 6 107 12 8 7 14 6 17 -3 3
-7 4 -3 4 9 -1 12 -5 19 -9 17 -4 -3 -8 2 -8 11 0 9 4 14 8 11 5 -3 9 1 9 9 0
8 -3 12 -7 10 -3 -2 -11 5 -18 16 -7 11 -8 19 -2 19 5 0 10 -5 10 -12 0 -6 3
-8 7 -4 11 11 12 66 2 66 -14 0 -11 28 4 33 9 4 9 6 0 6 -7 1 -13 6 -13 12 0
5 4 8 8 5 5 -3 9 1 9 9 0 8 -3 12 -7 10 -3 -2 -11 5 -18 16 -7 11 -8 19 -2 19
5 0 10 -5 10 -12 0 -6 3 -8 7 -4 11 11 12 66 2 66 -14 0 -11 28 4 33 10 4 10
6 0 6 -7 1 -13 6 -13 12 0 5 4 8 8 5 5 -3 9 1 9 9 0 8 -3 12 -7 10 -3 -2 -11
5 -18 16 -7 11 -8 19 -2 19 5 0 10 -5 10 -12 0 -6 3 -8 7 -4 11 11 12 66 2 66
-14 0 -11 28 4 33 9 4 9 6 0 6 -7 1 -13 6 -13 12 0 5 4 8 8 5 5 -3 9 1 9 9 0
8 -3 12 -7 10 -3 -2 -11 5 -18 16 -7 11 -8 19 -2 19 5 0 10 -5 10 -12 0 -6 3
-8 7 -4 11 11 12 66 2 66 -14 0 -11 28 3 33 10 4 10 6 1 6 -7 1 -13 6 -13 12
0 5 4 8 8 5 5 -3 9 1 9 9 0 8 -3 12 -7 10 -3 -2 -11 5 -18 16 -7 11 -8 19 -2
19 5 0 10 -5 10 -12 0 -6 3 -8 7 -4 11 11 12 66 2 66 -14 0 -11 28 3 33 10 4
10 6 1 6 -7 1 -13 6 -13 12 0 5 4 8 8 5 5 -3 9 1 9 9 0 8 -3 12 -7 10 -3 -2
-11 5 -18 16 -7 11 -8 19 -2 19 5 0 10 -5 10 -12 0 -6 3 -8 7 -4 11 11 12 66
2 66 -14 0 -11 28 3 33 10 4 10 6 1 6 -7 1 -13 6 -13 12 0 5 4 8 8 5 5 -3 9 1
9 9 0 8 -3 12 -7 10 -3 -2 -11 5 -18 16 -7 11 -8 19 -2 19 5 0 10 -5 10 -12 0
-6 3 -8 7 -4 11 11 12 66 2 66 -5 0 -9 7 -9 15 0 8 5 15 11 15 6 0 1 9 -12 20
-13 10 -18 19 -11 20 6 0 12 -5 12 -12 0 -6 3 -8 7 -4 10 10 11 176 1 169 -5
-2 -6 -8 -3 -13 3 -5 1 -11 -4 -15 -6 -3 -8 -12 -4 -20 3 -8 1 -15 -4 -15 -14
0 -10 40 7 70 14 26 23 93 11 86 -4 -3 -12 4 -19 15 -7 11 -8 19 -2 19 5 0 10
-5 10 -12 0 -6 3 -8 7 -4 11 11 12 66 2 66 -14 0 -11 28 4 34 6 3 1 3 -13 0
-19 -4 -22 -3 -10 5 8 6 11 11 7 11 -4 0 -2 10 5 23 13 24 19 239 6 231 -5 -3
-6 -9 -3 -14 3 -5 1 -11 -4 -15 -6 -3 -8 -12 -4 -20 3 -8 1 -15 -4 -15 -14 0
-10 40 7 70 14 26 23 93 11 86 -4 -3 -12 4 -19 15 -7 11 -8 19 -2 19 5 0 10
-5 10 -12 0 -6 3 -8 7 -4 11 11 12 66 2 66 -14 0 -11 28 4 34 6 3 1 3 -13 0
-19 -4 -22 -3 -10 5 8 6 11 11 7 11 -4 0 -2 10 5 23 13 24 19 239 6 231 -5 -3
-6 -9 -3 -14 3 -5 1 -11 -4 -15 -6 -3 -8 -12 -4 -20 3 -8 1 -15 -4 -15 -14 0
-10 40 7 70 14 26 23 93 11 86 -4 -3 -12 4 -19 15 -7 11 -8 19 -2 19 5 0 10
-5 10 -12 0 -6 3 -8 7 -4 11 11 12 66 2 66 -14 0 -11 28 4 34 6 3 1 3 -13 0
-19 -4 -22 -3 -10 5 8 6 11 11 7 11 -4 0 -2 10 5 23 13 24 19 239 6 231 -5 -3
-6 -9 -3 -14 3 -5 1 -11 -4 -15 -6 -3 -8 -12 -4 -20 3 -8 1 -15 -4 -15 -14 0
-10 40 7 70 14 26 23 93 11 86 -4 -3 -12 4 -19 15 -7 11 -8 19 -2 19 5 0 10
-5 10 -12 0 -6 3 -8 7 -4 11 11 12 66 2 66 -14 0 -11 28 4 34 6 3 1 3 -13 0
-19 -4 -22 -3 -10 5 8 6 11 11 7 11 -4 0 -2 10 5 23 13 24 19 239 6 231 -5 -3
-6 -9 -3 -14 3 -5 1 -11 -4 -15 -6 -3 -8 -12 -4 -20 3 -8 1 -15 -4 -15 -14 0
-10 40 7 70 14 26 23 93 11 86 -4 -3 -12 4 -19 15 -7 11 -8 19 -2 19 5 0 10
-5 10 -12 0 -6 3 -8 7 -4 11 11 12 66 2 66 -14 0 -11 28 4 34 6 3 1 3 -13 0
-19 -4 -22 -3 -10 5 8 6 11 11 7 11 -4 0 -2 10 5 23 12 22 20 249 8 242 -3 -2
-11 5 -18 16 -7 11 -8 19 -2 19 5 0 10 -5 10 -12 0 -6 3 -8 7 -4 11 11 12 66
2 66 -14 0 -11 28 4 33 9 4 9 6 0 6 -7 1 -13 6 -13 12 0 5 4 8 8 5 5 -3 9 1 9
9 0 8 -3 12 -7 10 -3 -2 -11 5 -18 16 -7 11 -8 19 -2 19 5 0 10 -5 10 -12 0
-6 3 -8 7 -4 11 11 12 66 2 66 -14 0 -11 28 4 33 10 4 10 6 0 6 -7 1 -13 6
-13 12 0 5 4 8 8 5 5 -3 9 1 9 9 0 8 -3 12 -7 10 -3 -2 -11 5 -18 16 -7 11 -8
19 -2 19 5 0 10 -5 10 -12 0 -6 3 -8 7 -4 11 11 12 66 2 66 -14 0 -11 28 4 33
10 4 10 6 0 6 -7 1 -13 6 -13 12 0 5 4 8 8 5 5 -3 9 1 9 9 0 8 -3 12 -7 10 -3
-2 -11 5 -18 16 -7 11 -8 19 -2 19 5 0 10 -5 10 -12 0 -6 3 -8 8 -4 11 11 10
60 -2 68 -5 4 -108 7 -228 8 l-218 1 0 -2166z m445 2126 c1 -11 -4 -17 -11
-14 -7 2 -11 12 -9 21 2 9 4 19 4 21 2 11 15 -12 16 -28z m-10 -60 c3 -5 2
-12 -3 -15 -5 -3 -9 1 -9 9 0 17 3 19 12 6z m10 -103 c1 -9 -3 -14 -9 -12 -6
2 -12 19 -13 36 -1 28 1 29 10 12 6 -10 12 -26 12 -36z m-10 -57 c3 -5 2 -12
-3 -15 -5 -3 -9 1 -9 9 0 17 3 19 12 6z m10 -103 c1 -9 -3 -14 -9 -12 -6 2
-12 19 -13 36 -1 28 1 29 10 12 6 -10 12 -26 12 -36z m-10 -57 c3 -5 2 -12 -3
-15 -5 -3 -9 1 -9 9 0 17 3 19 12 6z m10 -103 c1 -9 -3 -14 -9 -12 -6 2 -12
19 -13 36 -1 28 1 29 10 12 6 -10 12 -26 12 -36z m0 -170 c-1 -57 -5 -102 -10
-101 -13 4 -14 53 -1 53 7 0 8 3 1 8 -6 4 -11 21 -11 37 0 17 5 33 11 37 7 5
7 8 0 8 -6 0 -11 18 -11 40 0 27 3 37 11 30 6 -5 10 -49 10 -112z m0 -230 c1
-9 -3 -14 -9 -12 -6 2 -12 19 -13 36 -1 28 1 29 10 12 6 -10 12 -26 12 -36z
m1 -92 c-5 -31 -21 -21 -22 14 -1 24 2 28 12 19 8 -6 12 -21 10 -33z m-1 -188
c-1 -40 -5 -72 -10 -71 -13 4 -14 53 -1 53 7 0 8 3 1 8 -6 4 -11 21 -11 37 0
17 5 33 11 37 5 4 10 8 10 8 0 0 0 -33 0 -72z m0 -200 c1 -9 -3 -14 -9 -12 -6
2 -12 19 -13 36 -1 28 1 29 10 12 6 -10 12 -26 12 -36z m1 -92 c-5 -31 -21
-21 -22 14 -1 24 2 28 12 19 8 -6 12 -21 10 -33z m-1 -188 c-1 -40 -5 -72 -10
-71 -13 4 -14 53 -1 53 7 0 8 3 1 8 -6 4 -11 21 -11 37 0 17 5 33 11 37 5 4
10 8 10 8 0 0 0 -33 0 -72z m0 -200 c1 -9 -3 -14 -9 -12 -6 2 -12 19 -13 36
-1 28 1 29 10 12 6 -10 12 -26 12 -36z m1 -92 c-5 -31 -21 -21 -22 14 -1 24 2
28 12 19 8 -6 12 -21 10 -33z m-1 -188 c-1 -40 -5 -72 -10 -71 -13 4 -14 53
-1 53 7 0 8 3 1 8 -6 4 -11 21 -11 37 0 17 5 33 11 37 5 4 10 8 10 8 0 0 0
-33 0 -72z m0 -200 c1 -9 -3 -14 -9 -12 -6 2 -12 19 -13 36 -1 28 1 29 10 12
6 -10 12 -26 12 -36z m1 -92 c-5 -31 -21 -21 -22 14 -1 24 2 28 12 19 8 -6 12
-21 10 -33z m-1 -188 c-1 -40 -5 -72 -10 -71 -13 4 -14 53 -1 53 7 0 8 3 1 8
-6 4 -11 21 -11 37 0 17 5 33 11 37 5 4 10 8 10 8 0 0 0 -33 0 -72z m0 -200
c1 -9 -3 -14 -9 -12 -6 2 -12 19 -13 36 -1 28 1 29 10 12 6 -10 12 -26 12 -36z
m1 -92 c-5 -31 -21 -21 -22 14 -1 24 2 28 12 19 8 -6 12 -21 10 -33z m-1 -160
c0 -27 -4 -42 -11 -39 -13 5 -13 65 1 75 5 4 10 8 10 8 0 0 0 -20 0 -44z m0
-148 c1 -9 -3 -14 -9 -12 -6 2 -12 19 -13 36 -1 28 1 29 10 12 6 -10 12 -26
12 -36z m-10 -57 c3 -5 2 -12 -3 -15 -5 -3 -9 1 -9 9 0 17 3 19 12 6z m10
-103 c1 -9 -3 -14 -9 -12 -6 2 -12 19 -13 36 -1 28 1 29 10 12 6 -10 12 -26
12 -36z m-10 -57 c3 -5 2 -12 -3 -15 -5 -3 -9 1 -9 9 0 17 3 19 12 6z m10
-103 c1 -9 -3 -14 -9 -12 -6 2 -12 19 -13 36 -1 28 1 29 10 12 6 -10 12 -26
12 -36z m-10 -57 c3 -5 2 -12 -3 -15 -5 -3 -9 1 -9 9 0 17 3 19 12 6z m10
-103 c1 -9 -3 -14 -9 -12 -6 2 -12 19 -13 36 -1 28 1 29 10 12 6 -10 12 -26
12 -36z m-10 -57 c3 -5 2 -12 -3 -15 -5 -3 -9 1 -9 9 0 17 3 19 12 6z m10
-103 c1 -9 -3 -14 -9 -12 -6 2 -12 19 -13 36 -1 28 1 29 10 12 6 -10 12 -26
12 -36z m-10 -57 c3 -5 2 -12 -3 -15 -5 -3 -9 1 -9 9 0 17 3 19 12 6z m10
-103 c1 -9 -3 -14 -9 -12 -6 2 -12 19 -13 36 -1 28 1 29 10 12 6 -10 12 -26
12 -36z m-10 -57 c3 -5 2 -12 -3 -15 -5 -3 -9 1 -9 9 0 17 3 19 12 6z m10
-103 c1 -9 -3 -14 -9 -12 -6 2 -12 19 -13 36 -1 28 1 29 10 12 6 -10 12 -26
12 -36z m-10 -57 c3 -5 2 -12 -3 -15 -5 -3 -9 1 -9 9 0 17 3 19 12 6z m0 -40
c3 -5 2 -12 -3 -15 -5 -3 -9 1 -9 9 0 17 3 19 12 6z"/>
<path d="M6206 7899 c2 -4 13 -5 24 -2 12 3 20 0 20 -6 0 -7 -4 -9 -10 -6 -5
3 -10 1 -10 -6 0 -7 -8 -6 -25 5 -18 12 -23 12 -19 3 3 -8 -2 -14 -10 -14 -8
0 -13 5 -9 10 3 5 -2 5 -13 0 -11 -5 -37 -8 -58 -6 -28 2 -43 -3 -52 -15 -9
-13 -9 -19 -1 -24 9 -6 9 -8 0 -8 -7 0 -10 -7 -6 -17 4 -9 6 -39 6 -67 0 -38
-4 -50 -14 -48 -11 2 -11 0 1 -10 13 -11 15 -45 15 -200 0 -104 2 -188 6 -188
3 0 11 6 19 13 8 6 6 1 -5 -12 -14 -18 -16 -23 -5 -19 13 5 15 -11 15 -103 0
-66 4 -109 10 -109 6 0 3 -5 -5 -10 -8 -5 -11 -10 -6 -10 5 0 2 -8 -5 -17 -12
-14 -12 -16 0 -8 11 6 13 4 8 -8 -3 -10 -3 -17 1 -17 5 0 6 -16 4 -35 -3 -22
-8 -33 -16 -29 -6 3 -4 0 4 -8 12 -10 15 -35 14 -108 -1 -62 2 -98 10 -102 8
-6 8 -8 -1 -8 -7 0 -11 -19 -10 -50 0 -27 4 -47 8 -44 4 2 11 0 14 -6 4 -6 1
-9 -7 -8 -16 4 -19 -53 -3 -64 7 -5 7 -11 0 -15 -12 -10 -19 -37 -7 -29 5 3 9
-8 9 -24 0 -16 -3 -27 -7 -25 -3 2 -6 -5 -6 -15 0 -10 4 -16 8 -14 4 3 8 0 8
-6 0 -6 3 -9 8 -7 4 3 7 -44 8 -103 0 -74 -3 -107 -10 -103 -7 4 -7 1 0 -8 11
-13 15 -87 17 -311 1 -57 5 -85 12 -80 6 3 6 0 -1 -9 -6 -8 -10 -45 -9 -84 2
-52 -2 -75 -14 -90 -15 -18 -15 -19 2 -6 14 12 17 11 17 -2 0 -9 8 -20 18 -26
14 -8 15 -13 5 -30 -10 -15 -10 -21 0 -24 7 -3 2 -4 -10 -4 -17 1 -19 4 -11
14 7 9 7 13 0 13 -6 0 -9 7 -6 15 4 10 0 15 -15 15 -12 0 -22 5 -22 10 -2 13
-6 29 -9 35 -1 3 -3 9 -4 14 0 5 -5 13 -10 18 -5 5 -6 3 -2 -4 4 -7 2 -13 -3
-13 -10 0 -16 22 -12 43 1 5 -8 11 -19 14 -11 3 -20 14 -20 24 0 13 -7 19 -21
19 -17 0 -20 5 -16 21 5 18 2 20 -19 16 -20 -3 -24 0 -24 19 0 13 -3 23 -7 23
-21 -3 -33 2 -33 15 0 8 -9 18 -21 21 -12 4 -18 12 -15 21 4 9 -2 14 -15 14
-13 0 -23 8 -26 21 -3 11 -11 18 -19 15 -7 -3 -16 -1 -20 5 -3 6 -12 8 -20 5
-8 -3 -13 -2 -13 2 4 22 -3 32 -20 32 -11 0 -23 5 -27 12 -4 6 -3 8 4 4 6 -3
13 -3 16 2 3 5 0 9 -7 9 -49 3 -82 12 -85 23 -3 9 0 10 9 4 12 -6 12 -5 1 8
-7 9 -21 14 -32 11 -15 -4 -20 0 -21 13 0 15 -2 16 -7 4 -11 -23 -31 -23 -25
0 4 14 0 20 -11 20 -11 0 -14 -4 -10 -12 6 -10 4 -10 -8 0 -9 7 -32 14 -52 15
-33 2 -61 24 -30 24 8 0 14 -4 14 -9 0 -5 5 -6 11 -2 13 8 -13 26 -33 23 -7
-1 -37 -1 -66 0 -38 1 -52 5 -49 14 2 6 10 11 16 9 7 -1 10 2 6 8 -5 8 -11 8
-20 0 -8 -7 -15 -7 -19 -1 -7 11 -25 9 -45 -3 -9 -6 -12 -5 -8 1 5 8 -50 11
-178 11 -102 0 -182 -5 -179 -9 3 -5 0 -9 -5 -9 -6 0 -11 5 -11 10 0 6 -5 10
-11 10 -6 0 -8 -9 -4 -22 7 -23 7 -23 -8 -3 -14 19 -16 19 -22 3 -5 -13 -18
-18 -45 -18 -21 0 -41 -6 -43 -12 -4 -10 -6 -10 -6 0 -1 6 -6 12 -12 12 -6 0
-9 -7 -5 -15 3 -8 2 -14 -2 -14 -4 1 -9 0 -12 -1 -3 -1 -22 -4 -43 -5 -48 -4
-67 -11 -67 -25 0 -6 6 -8 13 -4 6 4 8 3 4 -1 -12 -14 -38 -15 -31 -2 5 8 2 7
-7 0 -7 -7 -23 -13 -35 -13 -13 0 -26 -5 -30 -12 -4 -7 -3 -8 4 -4 7 4 12 3
12 -2 0 -6 -7 -12 -15 -16 -8 -3 -15 0 -15 7 0 8 -3 8 -9 -2 -5 -7 -14 -10
-20 -7 -6 4 -11 2 -11 -4 0 -6 -5 -8 -12 -4 -10 6 -10 4 0 -8 8 -10 9 -19 3
-22 -5 -4 -13 -2 -16 4 -10 17 -35 -8 -28 -28 4 -13 2 -12 -11 3 -15 17 -17
17 -12 3 3 -12 0 -18 -10 -18 -8 0 -13 -4 -10 -9 4 -5 -3 -7 -14 -4 -16 4 -19
2 -14 -11 5 -12 0 -16 -21 -16 -23 0 -26 -2 -15 -15 12 -15 4 -19 -37 -18 -6
0 -9 -6 -6 -14 4 -9 -2 -16 -15 -20 -12 -3 -22 -15 -24 -27 -2 -14 -9 -20 -22
-18 -14 3 -18 -1 -13 -17 4 -15 -1 -21 -17 -23 -13 -2 -20 -10 -20 -21 1 -11
-5 -17 -18 -17 -10 0 -17 -4 -13 -9 3 -5 1 -12 -5 -16 -5 -3 -10 -17 -10 -31
0 -20 -4 -24 -18 -20 -14 5 -18 1 -18 -16 1 -16 -4 -23 -16 -22 -14 1 -18 -6
-18 -32 0 -18 -5 -36 -12 -40 -7 -5 -8 -3 -3 7 8 12 6 12 -8 0 -14 -11 -15
-16 -5 -29 10 -13 10 -14 1 -8 -10 5 -13 -3 -14 -31 0 -21 -3 -32 -6 -25 -7
17 -20 15 -27 -4 -3 -9 -2 -12 5 -8 7 4 7 0 0 -12 -5 -11 -13 -36 -16 -57 -5
-28 -10 -37 -21 -33 -17 7 -18 -5 -1 -23 10 -11 9 -12 -2 -6 -11 6 -13 4 -8
-10 4 -9 2 -25 -5 -33 -7 -9 -8 -13 -2 -9 7 4 9 -8 3 -41 -4 -26 -4 -51 -1
-56 3 -5 0 -6 -6 -2 -6 3 -15 -1 -20 -11 -10 -21 -9 -369 1 -379 4 -4 2 -13
-5 -21 -8 -11 -7 -12 6 -7 10 4 15 13 12 21 -3 8 -2 12 3 9 11 -7 20 -66 10
-66 -4 0 -3 -16 2 -35 6 -19 7 -40 3 -47 -5 -7 -1 -9 12 -6 15 4 20 -1 22 -26
1 -17 3 -42 5 -56 1 -14 10 -28 20 -32 13 -6 17 -19 17 -53 0 -36 3 -45 18
-45 14 0 15 2 2 10 -13 8 -12 10 3 10 14 0 17 -5 12 -20 -3 -11 -2 -20 4 -20
5 0 8 -9 6 -20 -2 -11 -1 -19 3 -19 22 4 30 -3 25 -22 -5 -19 -3 -20 18 -14
23 7 23 6 5 -7 -15 -12 -16 -17 -6 -23 9 -5 11 -4 6 3 -4 7 -2 12 3 12 6 0 12
-4 12 -10 1 -5 3 -14 4 -20 1 -5 3 -17 4 -26 0 -8 6 -12 11 -9 6 4 7 11 4 17
-4 7 -2 8 4 4 7 -4 12 -18 12 -32 0 -14 4 -23 8 -20 13 8 33 -10 35 -32 1 -16
4 -18 14 -10 10 8 14 3 19 -21 4 -17 10 -31 15 -31 5 0 18 -9 29 -20 11 -11
20 -16 20 -10 0 6 4 10 10 10 5 0 9 -3 9 -7 -4 -23 3 -33 21 -33 11 0 19 -3
19 -7 -4 -23 3 -35 15 -30 9 4 16 -3 20 -19 4 -14 11 -22 17 -19 7 5 6 12 -2
21 -8 10 -8 14 0 14 6 0 14 -12 17 -26 5 -19 9 -22 15 -12 7 11 11 10 19 -2 5
-8 11 -19 12 -23 2 -4 17 -9 33 -11 16 -2 31 -9 33 -17 3 -11 2 -12 -6 -1 -8
11 -10 11 -15 0 -5 -13 15 -19 79 -21 11 -1 21 -7 21 -14 0 -10 -4 -10 -16 0
-14 10 -14 10 -3 -5 9 -11 27 -17 52 -16 46 0 61 -7 53 -27 -3 -8 0 -15 6 -15
10 0 15 14 12 33 -1 5 3 6 8 2 6 -3 7 -13 4 -22 -4 -11 -2 -14 5 -9 6 4 20 2
31 -4 14 -7 22 -7 26 0 4 7 11 7 18 2 7 -5 25 -8 40 -7 15 1 30 -2 33 -7 3 -5
0 -7 -7 -6 -6 2 -13 -1 -15 -7 -3 -6 22 -10 64 -9 37 0 73 -4 81 -10 12 -9 13
-8 7 2 -7 12 -4 12 14 2 15 -8 20 -8 16 -1 -4 6 -3 11 3 11 5 0 12 -6 14 -12
4 -10 6 -10 6 1 1 8 8 5 19 -10 13 -15 21 -19 26 -10 4 6 3 10 -2 9 -6 -2 -10
1 -11 7 -1 5 17 10 39 10 22 0 40 -4 40 -10 0 -7 3 -7 8 0 4 6 39 11 77 12 83
2 123 8 133 18 4 4 -2 5 -13 1 -11 -3 -26 -2 -33 3 -12 7 57 14 126 13 12 0
22 4 22 10 0 5 -6 6 -12 3 -7 -4 -4 1 6 9 18 14 50 21 83 17 7 -1 10 7 8 18
-2 12 -1 20 3 20 4 -1 26 -1 50 0 35 1 44 5 51 24 5 12 11 21 15 20 20 -8 35
-1 29 13 -4 12 -2 15 8 12 8 -3 20 2 27 11 10 12 12 13 6 1 -7 -12 -5 -13 8
-3 8 7 19 9 23 5 5 -4 6 0 2 10 -4 11 1 18 18 22 17 4 22 11 18 22 -4 12 -2
15 8 12 17 -6 49 9 49 23 0 6 -5 7 -12 3 -7 -4 -8 -3 -4 4 4 7 19 12 33 12 21
0 23 3 14 14 -8 10 -9 16 -1 21 5 3 10 1 10 -4 0 -6 5 -11 12 -11 6 0 8 3 4 7
-3 4 6 13 21 20 25 12 26 12 3 6 -22 -5 -23 -4 -12 10 8 9 20 13 27 11 10 -4
12 0 8 15 -3 13 -1 21 6 21 7 0 9 -4 6 -10 -3 -6 1 -7 9 -4 9 4 16 18 16 34 0
23 4 27 20 23 15 -4 18 -1 15 16 -3 16 1 21 18 21 19 0 23 5 22 35 -1 28 2 35
17 35 18 0 20 4 20 51 1 15 7 26 14 26 10 0 11 -4 3 -13 -7 -8 -7 -14 1 -19 5
-3 10 -5 11 -3 1 6 9 58 12 83 2 14 6 25 10 25 4 0 12 0 19 0 6 0 3 -7 -8 -15
-11 -9 -13 -14 -5 -13 14 3 34 -46 23 -56 -3 -4 -6 -37 -6 -75 -1 -53 2 -67
11 -59 9 7 14 2 19 -17 10 -41 10 -284 0 -278 -5 4 -5 0 0 -8 4 -8 9 -68 9
-134 0 -66 4 -126 8 -132 5 -7 4 -13 0 -13 -5 0 -9 -9 -9 -20 0 -11 4 -20 9
-20 4 0 5 -5 1 -12 -13 -20 -11 -78 3 -90 10 -8 13 -7 13 3 0 9 3 10 8 3 8
-12 120 -12 140 0 6 4 12 3 12 -1 0 -8 195 -8 235 0 11 2 24 -1 28 -7 6 -7 7
-6 4 4 -2 9 -16 15 -34 15 -17 0 -35 3 -39 7 -4 4 13 6 38 4 l44 -3 -1 136 c0
111 -3 137 -15 143 -12 5 -11 7 4 7 12 1 16 6 12 17 -3 9 -6 21 -6 27 0 6 -7
2 -16 -9 -14 -18 -15 -18 -4 4 6 12 15 22 21 22 6 0 7 5 3 12 -11 17 -10 138
0 141 6 2 3 6 -5 9 -13 5 -15 -7 -14 -74 1 -44 -2 -81 -5 -83 -3 -2 -6 32 -5
76 1 49 -3 79 -10 79 -5 0 -4 4 3 9 17 11 17 21 0 32 -7 5 -8 9 -2 9 12 0 11
41 -1 59 -3 6 -2 11 4 11 5 0 8 10 5 23 -3 12 -6 133 -7 268 -2 201 -4 245
-15 241 -11 -4 -11 -6 0 -13 10 -7 11 -9 0 -9 -8 0 -10 -5 -6 -12 4 -7 3 -10
-1 -5 -16 14 -15 45 1 51 9 4 14 13 10 21 -3 8 -1 15 3 15 8 0 8 20 1 40 -6
17 -4 46 5 53 6 5 4 7 -5 5 -9 -3 -15 -18 -15 -41 -1 -20 3 -33 8 -30 5 3 4
-4 -2 -14 -6 -11 -7 -23 -4 -27 3 -3 2 -6 -3 -6 -5 0 -10 52 -11 115 -1 86 2
113 10 108 9 -5 9 -3 0 8 -8 9 -13 65 -15 154 -3 118 -5 139 -18 137 -8 -2
-12 0 -8 4 4 4 2 14 -4 23 -8 10 -4 9 10 -3 l22 -19 0 42 c0 31 -3 40 -12 35
-10 -6 -10 -4 0 7 18 19 15 39 -5 33 -15 -5 -16 -4 -3 5 19 13 21 48 4 62 -9
7 -14 8 -14 1 0 -6 5 -13 10 -15 6 -3 5 -4 -2 -3 -9 2 -13 34 -14 122 -1 107
1 121 20 144 l21 25 -21 -18 -21 -18 -3 158 c-1 87 -2 233 -3 326 -2 126 -5
167 -14 167 -15 0 -15 1 -17 53 -1 20 3 37 9 37 7 0 7 3 0 8 -6 4 -11 16 -11
27 0 11 5 23 11 27 7 5 6 8 -1 8 -11 0 -15 99 -17 463 0 75 -5 137 -9 137 -5
0 -6 -4 -3 -10 3 -5 1 -10 -4 -10 -16 0 -13 19 4 36 8 9 15 21 15 27 0 7 -5 4
-11 -5 -5 -10 -13 -18 -17 -18 -10 0 -7 134 3 150 5 7 4 11 -1 8 -5 -4 -9 53
-9 133 0 76 -4 139 -8 139 -5 0 -5 5 -1 11 11 18 10 139 -1 142 -6 2 -5 10 3
19 7 9 9 19 5 21 -10 7 -10 48 1 65 4 7 3 12 -2 12 -5 0 -8 13 -7 30 1 16 -4
35 -11 41 -10 8 -14 8 -14 0 0 -6 4 -11 8 -11 5 0 9 -7 9 -15 0 -26 -15 -16
-22 13 l-6 28 -129 0 c-70 0 -127 -4 -124 -7z m84 -11 c0 -4 -7 -8 -15 -8 -8
0 -15 4 -15 8 0 5 7 9 15 9 8 0 15 -4 15 -9z m47 -3 c0 -7 -6 -12 -13 -12 -7
0 -15 5 -17 12 -3 6 3 11 12 11 10 0 18 -5 18 -11z m81 6 c2 -1 0 -6 -3 -11
-4 -6 -12 -7 -18 -3 -7 4 -20 6 -29 5 -10 -2 -18 1 -18 7 0 7 44 9 68 2z m67
-81 c3 -5 2 -10 -4 -10 -5 0 -13 5 -16 10 -3 6 -2 10 4 10 5 0 13 -4 16 -10z
m2 -35 c0 -8 -4 -15 -9 -15 -4 0 -8 7 -8 15 0 8 4 15 8 15 5 0 9 -7 9 -15z m7
-34 c3 -5 0 -14 -7 -19 -10 -8 -13 -6 -14 9 -2 19 11 26 21 10z m-7 -146 c0
-8 -4 -12 -9 -9 -5 3 -6 10 -3 15 9 13 12 11 12 -6z m39 -544 c0 -11 -4 -17
-8 -15 -4 3 -8 12 -8 20 0 8 4 14 8 14 4 0 8 -9 8 -19z m4 -42 c0 -14 -17 -10
-23 5 -4 10 -1 13 9 9 7 -3 14 -9 14 -14z m-3 -34 c0 -6 -6 -12 -12 -12 -6 0
-12 6 -12 12 0 6 6 12 12 12 6 0 12 -6 12 -12z m0 -50 c0 -8 -4 -12 -9 -9 -4
3 -8 9 -8 15 0 5 4 9 8 9 5 0 9 -7 9 -15z m-2 -144 c3 -5 2 -12 -3 -15 -5 -3
-9 1 -9 9 0 17 3 19 12 6z m-415 -111 c0 -5 -2 -10 -4 -10 -3 0 -8 5 -11 10
-3 6 -1 10 4 10 6 0 11 -4 11 -10z m8 -156 c0 -17 -3 -22 -8 -13 -5 6 -6 18
-3 26 8 19 11 16 11 -13z m-2 -64 c0 -16 -3 -30 -7 -30 -6 0 -6 36 0 58 4 11
7 -4 7 -28z m449 -166 c1 -19 -3 -34 -9 -34 -8 0 -8 -3 -1 -8 6 -4 10 -17 9
-29 -2 -33 -3 -35 -14 -28 -8 5 -8 11 -1 19 6 7 8 16 4 19 -7 8 -12 88 -5 100
8 15 16 -4 17 -39z m1 -140 c1 -9 0 -13 -4 -10 -3 4 -7 14 -8 22 -1 9 0 13 4
10 3 -4 7 -14 8 -22z m-1268 -19 c-3 -3 -9 2 -12 12 -6 14 -5 15 5 6 7 -7 10
-15 7 -18z m-368 9 c0 -8 -19 -13 -24 -6 -3 5 1 9 9 9 8 0 15 -2 15 -3z m1215
-203 c3 -5 2 -12 -3 -15 -5 -3 -9 1 -9 9 0 17 3 19 12 6z m10 -240 c0 -50 -4
-93 -9 -98 -5 -4 -6 -3 -2 4 3 6 2 15 -4 18 -8 5 -8 11 -1 19 6 7 8 16 4 20
-17 17 -7 126 11 126 1 0 2 -40 1 -89z m-1239 -8 c-3 -7 -1 -13 4 -13 6 0 10
7 10 15 0 14 22 16 162 14 143 -1 160 -3 143 -15 -14 -10 -15 -14 -4 -15 8 0
23 -2 34 -4 11 -2 41 -5 67 -6 26 -2 45 -6 42 -11 -3 -5 -9 -6 -13 -4 -4 3 -8
0 -8 -7 0 -7 8 -13 18 -13 10 0 15 4 12 9 -3 5 9 1 26 -8 18 -9 29 -20 26 -26
-4 -5 -3 -9 2 -8 4 1 23 -2 41 -6 22 -5 32 -13 32 -27 0 -15 5 -18 22 -13 17
6 20 4 15 -9 -5 -13 1 -20 24 -28 23 -8 27 -13 17 -19 -7 -5 -10 -9 -5 -10 4
-1 12 -3 17 -4 6 -1 15 -3 21 -4 6 0 9 -10 6 -22 -4 -15 -2 -19 9 -15 16 6 34
-23 26 -44 -4 -13 -3 -13 10 -2 20 16 29 4 30 -38 1 -17 5 -30 10 -30 5 0 6 5
3 10 -3 6 -1 10 4 10 6 0 12 -4 12 -10 1 -5 3 -14 4 -20 1 -5 3 -14 4 -20 0
-5 7 -10 15 -10 20 0 29 -17 15 -26 -8 -4 -9 -3 -5 4 4 7 1 12 -7 12 -7 0 -14
-7 -14 -15 0 -8 3 -12 7 -10 3 2 11 1 17 -3 14 -9 24 -72 12 -72 -6 0 -7 -5
-3 -11 5 -8 9 -8 14 1 11 18 18 0 22 -60 1 -30 7 -58 13 -62 6 -5 4 -8 -5 -8
-13 0 -13 -1 0 -10 8 -5 10 -10 5 -10 -6 0 -10 -42 -9 -107 0 -60 -3 -116 -8
-125 -6 -13 -5 -18 4 -18 9 0 9 -3 -2 -10 -9 -6 -17 -5 -22 3 -6 10 -10 -29
-11 -104 0 -9 -6 -16 -13 -16 -7 0 -11 3 -9 7 2 3 0 12 -4 18 -4 8 -9 -5 -10
-30 -2 -24 -3 -48 -4 -54 0 -6 -6 -11 -14 -11 -17 0 -17 14 0 20 7 3 5 6 -5 6
-14 1 -18 -7 -18 -34 0 -29 -4 -35 -21 -35 -19 0 -20 -2 -8 -17 10 -11 10 -14
2 -9 -7 4 -13 3 -13 -2 0 -5 -9 -12 -20 -15 -11 -3 -20 -10 -20 -16 0 -9 6 -9
23 -1 21 11 21 10 3 -4 -11 -9 -29 -16 -40 -16 -20 -1 -20 -1 -3 -14 16 -12
16 -14 2 -20 -9 -3 -13 -2 -10 4 3 6 1 10 -4 10 -6 0 -11 -7 -11 -15 0 -9 -6
-12 -15 -9 -10 4 -15 0 -15 -14 0 -15 -5 -20 -20 -17 -14 3 -20 -2 -20 -16 0
-10 -3 -20 -7 -20 -5 -1 -21 -3 -38 -4 -42 -4 -43 -4 -17 -19 23 -12 23 -13
-14 -14 -34 -1 -58 -17 -49 -32 4 -6 -20 -9 -107 -11 -21 -1 -38 -6 -38 -11 0
-5 -4 -6 -10 -3 -6 4 -7 -1 -3 -12 6 -16 5 -17 -12 -3 -10 8 -16 10 -12 3 5
-8 -11 -11 -57 -10 -35 1 -62 -2 -59 -7 3 -4 -4 -5 -16 -1 -12 3 -60 8 -108 9
-67 3 -89 7 -99 20 -7 10 -18 16 -26 15 -41 -5 -58 2 -58 24 0 17 -2 19 -9 7
-6 -8 -7 -18 -4 -24 4 -5 1 -6 -6 -2 -7 5 -10 14 -7 22 4 10 -2 14 -19 14 -16
0 -25 6 -25 15 0 8 -10 16 -22 17 -13 0 -30 1 -38 2 -8 1 -17 10 -20 21 -3 11
-12 20 -20 20 -8 0 -16 10 -18 21 -2 16 -8 21 -23 17 -16 -4 -20 -1 -17 12 2
13 -5 21 -20 24 -13 3 -23 9 -23 14 2 22 0 27 -14 27 -14 0 -19 12 -16 33 0 4
-8 7 -19 7 -17 0 -23 10 -19 36 0 4 -5 11 -13 15 -10 7 -10 9 0 9 7 0 10 5 7
10 -5 8 -11 7 -21 -1 -12 -10 -14 -4 -14 35 0 43 -6 51 -32 47 -4 0 -7 16 -7
37 -1 66 -5 91 -12 86 -4 -2 -6 -16 -3 -30 3 -17 1 -23 -6 -19 -6 4 -9 13 -6
20 2 7 -1 18 -7 24 -8 8 -8 11 2 11 7 0 9 5 4 13 -9 14 -11 317 -2 311 3 -2
15 3 25 12 18 14 18 15 -3 9 -14 -4 -23 -2 -23 5 0 6 4 9 9 5 6 -3 15 4 21 15
8 15 8 20 -2 20 -9 0 -9 3 0 12 7 7 12 20 12 30 0 11 5 15 15 12 15 -6 17 2
18 64 0 18 3 20 13 11 8 -6 14 -8 15 -3 0 5 3 18 5 29 3 11 6 25 6 32 1 7 4
12 7 11 17 -2 31 3 30 10 -5 29 2 40 24 34 19 -5 20 -3 9 10 -10 13 -9 17 5
23 10 5 21 7 26 7 4 -1 8 3 8 8 1 6 2 16 3 23 1 6 9 11 19 9 9 -2 17 2 17 8 0
6 6 8 13 4 7 -5 6 0 -3 11 -14 17 -13 18 8 13 12 -4 22 -2 22 4 0 5 6 6 13 2
8 -5 8 -2 -2 9 -12 15 -11 17 5 18 11 1 24 1 31 0 7 -1 19 9 28 22 11 17 23
23 45 22 16 -1 27 1 25 5 -10 17 17 30 66 32 34 2 56 8 56 15 0 6 -9 10 -19 8
-10 -2 -16 -1 -14 4 9 13 57 8 52 -6z m369 -5 c5 -4 0 -6 -12 -6 -13 1 -19 7
-16 15 3 8 8 10 12 6 3 -4 10 -11 16 -15z m-895 -1028 c0 -5 -4 -10 -10 -10
-5 0 -10 5 -10 10 0 6 5 10 10 10 6 0 10 -4 10 -10z m1844 -318 c3 -5 -1 -9
-9 -9 -8 0 -12 4 -9 9 3 4 7 8 9 8 2 0 6 -4 9 -8z m-947 -107 c4 -4 2 -5 -4
-1 -7 4 -13 3 -13 -2 0 -5 -6 -9 -14 -9 -8 0 -12 6 -9 13 5 13 28 13 40 -1z
m-1042 -143 c-3 -3 -11 0 -18 7 -9 10 -8 11 6 5 10 -3 15 -9 12 -12z m1402
-185 c0 -8 -6 -14 -14 -14 -9 0 -10 4 -2 14 6 7 12 13 14 13 1 0 2 -6 2 -13z
m1038 -86 c3 -5 2 -12 -3 -15 -5 -3 -9 1 -9 9 0 17 3 19 12 6z"/>
<path d="M4456 5372 c-3 -5 1 -9 9 -9 8 0 12 4 9 9 -3 4 -7 8 -9 8 -2 0 -6 -4
-9 -8z"/>
<path d="M4344 5109 c-3 -6 -2 -15 3 -20 5 -5 9 -1 9 11 0 23 -2 24 -12 9z"/>
<path d="M5356 4275 c-3 -8 -1 -15 3 -15 5 0 11 7 15 15 3 8 1 15 -3 15 -5 0
-11 -7 -15 -15z"/>
<path d="M4870 4239 c0 -15 15 -17 33 -4 16 11 15 13 -8 13 -14 0 -25 -4 -25
-9z"/>
<path d="M6015 7859 c-4 -6 -5 -12 -2 -15 2 -3 7 2 10 11 7 17 1 20 -8 4z"/>
<path d="M3064 7813 c-5 -17 -12 -23 -25 -20 -11 3 -16 0 -12 -8 2 -7 -3 -26
-12 -42 -12 -22 -14 -23 -10 -5 4 13 2 22 -4 22 -6 0 -11 -9 -11 -20 0 -11 -7
-20 -15 -20 -9 0 -20 -11 -25 -24 -5 -13 -14 -27 -21 -32 -8 -4 -10 -3 -5 4 4
7 2 12 -3 12 -10 0 -16 -28 -12 -59 2 -7 -2 -10 -8 -7 -12 8 -43 -22 -36 -35
4 -5 -1 -6 -9 -3 -11 4 -19 -2 -25 -19 -10 -25 -36 -41 -52 -31 -5 3 -9 0 -9
-5 0 -6 5 -11 12 -11 15 0 0 -15 -15 -15 -7 0 -11 -9 -9 -19 2 -11 -1 -15 -7
-11 -6 3 -11 1 -11 -5 0 -6 -4 -8 -10 -5 -5 3 -10 1 -10 -4 0 -23 -2 -26 -21
-33 -10 -4 -19 -16 -19 -27 0 -14 -5 -18 -20 -14 -15 4 -20 0 -20 -16 0 -15
-6 -21 -21 -21 -14 0 -19 -5 -16 -14 3 -8 -5 -18 -19 -25 -13 -6 -23 -16 -22
-23 2 -7 -7 -14 -20 -16 -18 -3 -21 -7 -12 -17 8 -9 6 -14 -6 -19 -9 -3 -20
-4 -25 0 -5 3 -9 -7 -9 -21 0 -22 -3 -25 -20 -20 -15 5 -20 2 -20 -13 0 -12
-9 -22 -21 -25 -14 -4 -20 -11 -16 -21 4 -10 -1 -16 -16 -18 -12 -2 -23 -9
-23 -15 -1 -7 -2 -17 -3 -22 0 -5 -11 -7 -23 -4 -19 4 -20 3 -8 -6 13 -10 13
-12 0 -21 -8 -5 -21 -10 -27 -10 -7 0 -13 -4 -13 -10 0 -5 8 -7 18 -3 14 5 13
3 -3 -10 -11 -8 -23 -13 -26 -11 -10 6 -28 -20 -32 -47 -2 -13 -12 -26 -23
-29 -10 -3 -19 -11 -19 -17 0 -7 -4 -12 -10 -10 -5 1 -9 8 -9 14 1 7 -2 11 -6
8 -4 -3 -7 -16 -7 -31 0 -14 -6 -31 -13 -37 -10 -9 -11 -9 -6 1 12 21 -8 13
-22 -9 -8 -12 -9 -18 -3 -15 7 4 8 1 5 -8 -3 -8 -12 -12 -20 -9 -8 3 -14 0
-14 -7 0 -7 -7 -10 -17 -6 -15 5 -15 4 1 -9 19 -15 19 -15 -2 -15 -16 0 -22
-6 -22 -21 0 -16 -5 -20 -20 -16 -16 4 -20 0 -20 -19 0 -13 -3 -23 -7 -23 -23
4 -33 -3 -33 -21 0 -11 -3 -19 -7 -19 -23 4 -34 -3 -31 -18 2 -10 -1 -18 -7
-18 -18 -1 -36 -16 -30 -26 6 -8 -8 -13 -27 -10 -5 0 -8 -9 -8 -20 0 -16 -5
-20 -19 -16 -16 4 -21 -1 -23 -22 -2 -18 -8 -25 -20 -23 -12 2 -16 -3 -13 -18
4 -18 -10 -26 -38 -21 -5 1 -6 -3 -2 -9 4 -6 1 -17 -5 -25 -6 -8 -9 -18 -7
-22 3 -5 -4 -10 -16 -10 -12 -1 -23 -7 -25 -13 -2 -5 -8 -8 -13 -4 -5 3 -9 -5
-9 -17 0 -16 -5 -20 -20 -16 -11 3 -18 2 -16 -1 2 -4 0 -18 -5 -31 -8 -19 -12
-21 -24 -11 -12 10 -14 8 -10 -9 2 -11 -1 -23 -6 -26 -5 -4 -6 -11 -3 -17 5
-7 0 -9 -13 -6 -17 5 -20 0 -20 -38 -1 -32 3 -44 14 -44 8 0 11 5 8 10 -3 6
-1 10 4 10 6 0 11 -15 11 -32 1 -32 1 -32 17 -13 13 16 15 17 10 3 -4 -12 -1
-18 9 -18 18 0 46 -25 37 -34 -4 -3 -1 -6 6 -6 8 0 10 -7 6 -21 -6 -19 -5 -20
8 -8 8 8 12 18 9 23 -3 5 0 6 6 2 6 -4 9 -13 5 -21 -3 -9 1 -15 10 -15 9 0 19
-5 23 -12 4 -6 3 -8 -4 -4 -6 3 -14 1 -18 -5 -4 -7 -3 -9 4 -5 6 3 18 -1 27
-11 14 -14 18 -14 26 -2 7 10 9 8 7 -11 -2 -19 2 -25 17 -25 11 0 20 -7 20
-15 0 -8 7 -18 15 -21 22 -9 65 5 65 22 1 8 7 13 13 11 7 -1 20 4 28 13 12 12
12 15 2 16 -7 0 -1 5 14 10 17 7 25 15 21 25 -4 10 2 14 20 14 20 0 24 4 20
20 -4 15 0 20 16 20 14 0 21 6 21 20 0 13 7 20 20 20 11 0 20 5 20 11 0 5 -6
7 -12 3 -9 -5 -9 -2 1 9 7 9 19 17 26 17 7 0 15 10 18 21 4 15 11 20 21 16 11
-5 16 0 16 13 0 24 20 37 31 19 6 -10 9 -6 9 14 0 24 9 32 33 28 4 -1 7 4 6
11 -3 28 2 37 17 31 10 -4 17 1 21 16 5 19 14 25 34 23 3 -1 6 4 7 11 3 31 10
52 18 52 21 2 54 17 54 26 0 6 -4 7 -10 4 -5 -3 -10 -1 -10 4 0 6 7 11 15 11
10 0 15 7 13 18 -2 11 3 16 15 14 12 -2 17 4 17 21 0 23 4 25 54 29 13 1 23 7
23 13 -1 40 4 53 21 51 10 0 17 6 16 16 -1 10 10 21 28 27 27 10 29 13 17 28
-13 15 -12 16 8 11 24 -6 41 6 23 17 -16 10 -1 25 25 25 19 0 22 4 17 22 -4
17 -2 20 12 15 12 -5 19 0 26 18 6 17 14 23 25 19 9 -4 15 -3 14 2 -5 29 2 42
21 37 15 -4 18 -1 15 16 -3 16 1 21 16 21 17 0 24 11 20 33 0 4 8 7 19 7 13 0
20 7 20 20 0 15 7 20 26 20 21 0 24 3 15 13 -13 16 -5 27 21 27 12 0 18 6 16
18 -2 11 3 17 14 16 17 -2 42 48 31 60 -4 3 -1 6 6 6 8 0 11 -6 7 -16 -5 -14
-4 -15 8 -5 8 7 12 19 10 26 -4 10 1 12 18 8 13 -3 20 -2 16 2 -4 4 -2 17 4
29 7 11 11 25 10 29 -1 5 2 6 8 2 6 -3 8 -11 5 -16 -4 -5 -1 -9 5 -9 6 0 10
10 8 23 -2 18 1 21 21 19 13 -2 21 1 17 6 -3 6 0 24 7 41 10 24 16 28 25 19 9
-9 12 -9 13 0 1 7 2 17 3 22 0 6 5 9 9 8 5 -2 15 9 23 25 9 15 23 27 34 27 22
0 28 19 8 21 -7 0 1 7 17 14 17 7 35 11 40 8 6 -2 2 2 -8 10 -15 13 -16 15 -2
21 8 3 15 0 15 -6 0 -21 13 1 14 24 1 16 7 22 19 20 11 -2 17 4 17 17 0 11 5
23 10 26 6 3 10 1 10 -5 0 -6 4 -9 9 -6 5 3 9 22 9 42 0 27 -5 38 -19 41 -10
3 -19 12 -19 19 0 8 -9 14 -20 14 -13 0 -20 7 -20 19 0 13 -8 21 -22 23 -16 2
-22 9 -20 22 2 10 -1 15 -7 12 -5 -4 -12 -2 -16 4 -4 6 -10 8 -15 5 -4 -3 -6
4 -3 15 5 17 0 20 -27 20 -23 0 -33 5 -37 20 -3 11 -9 20 -14 20 -4 0 -6 9 -4
20 2 11 1 19 -3 19 -33 -5 -60 3 -58 17 2 28 -33 25 -40 -3z m91 -32 c3 -5 1
-12 -5 -16 -5 -3 -10 1 -10 9 0 18 6 21 15 7z m-705 -647 c0 -8 -19 -13 -24
-6 -3 5 1 9 9 9 8 0 15 -2 15 -3z m-40 -40 c0 -8 -19 -13 -24 -6 -3 5 1 9 9 9
8 0 15 -2 15 -3z m-124 -131 c-10 -10 -19 5 -10 18 6 11 8 11 12 0 2 -7 1 -15
-2 -18z m224 -399 c0 -8 -5 -12 -10 -9 -6 4 -8 11 -5 16 9 14 15 11 15 -7z
m-186 -196 c-3 -4 -9 -8 -15 -8 -5 0 -9 4 -9 8 0 5 7 9 15 9 8 0 12 -4 9 -9z
m-37 -33 c0 -8 -4 -12 -9 -9 -5 3 -6 10 -3 15 9 13 12 11 12 -6z m-642 -63
c-3 -3 -11 0 -18 7 -9 10 -8 11 6 5 10 -3 15 -9 12 -12z"/>
<path d="M3193 7745 c0 -8 4 -15 9 -15 4 0 8 4 8 9 0 6 -4 12 -8 15 -5 3 -9
-1 -9 -9z"/>
<path d="M9159 7743 c-1 -5 -1 -11 0 -15 0 -5 -31 -8 -70 -8 -41 0 -68 -4 -64
-9 3 -5 1 -13 -5 -16 -6 -4 -9 -1 -8 6 2 6 -3 14 -11 17 -10 3 -12 0 -8 -11 3
-9 1 -19 -5 -23 -7 -4 -8 -3 -4 4 4 7 2 12 -4 12 -6 0 -8 6 -5 13 4 6 -2 3
-12 -9 -10 -11 -29 -20 -43 -21 -61 -2 -118 -8 -118 -13 2 -23 -5 -28 -28 -24
-17 3 -23 1 -19 -7 6 -8 2 -8 -14 0 -16 9 -21 9 -21 0 0 -8 -4 -8 -12 -1 -9 7
-17 5 -28 -6 -13 -14 -13 -15 1 -10 9 3 22 2 30 -4 11 -8 11 -9 -3 -4 -10 3
-20 1 -22 -3 -3 -5 -18 -6 -32 -3 -18 3 -25 1 -20 -6 3 -6 1 -14 -5 -18 -7 -4
-9 -3 -6 3 4 6 0 13 -8 17 -8 3 -17 1 -20 -4 -4 -6 0 -10 7 -10 29 -1 -19 -18
-57 -21 -48 -3 -57 -7 -49 -20 4 -6 10 -6 18 0 9 8 13 7 13 -2 0 -7 -10 -13
-21 -14 -97 -5 -99 -6 -76 -18 25 -13 11 -23 -27 -20 -13 1 -23 -2 -23 -6 0
-4 -8 -6 -18 -4 -11 2 -19 -3 -19 -11 0 -10 4 -11 13 -3 8 7 14 6 20 -2 4 -7
3 -9 -4 -5 -6 3 -13 2 -17 -4 -3 -6 -17 -8 -31 -6 -13 3 -22 1 -20 -3 9 -15
-11 -31 -45 -35 -25 -3 -33 -8 -31 -20 2 -9 -1 -16 -5 -17 -36 -3 -72 -19 -44
-19 7 0 9 -4 6 -10 -3 -5 -15 -10 -26 -10 -13 0 -19 -6 -17 -17 2 -10 -2 -17
-9 -16 -25 5 -65 -17 -59 -32 4 -12 0 -14 -19 -11 -21 4 -25 1 -25 -20 0 -14
-4 -23 -9 -20 -5 4 -16 3 -25 0 -12 -5 -14 -10 -6 -19 9 -10 6 -14 -12 -17
-13 -2 -23 -10 -23 -18 0 -8 -9 -18 -20 -21 -12 -3 -19 -12 -17 -22 2 -10 -1
-17 -5 -16 -22 4 -33 -3 -33 -21 0 -11 -3 -19 -7 -19 -23 4 -33 -3 -34 -23 0
-22 -1 -22 -9 -3 -8 18 -9 18 -9 2 -1 -10 -6 -15 -11 -12 -6 4 -10 3 -9 -2 4
-25 -2 -42 -15 -37 -9 3 -15 -6 -20 -28 -5 -25 -9 -30 -16 -18 -5 8 -12 11
-16 7 -4 -3 -1 -14 6 -22 7 -9 9 -15 4 -14 -19 3 -34 -1 -34 -12 0 -5 4 -7 10
-4 6 3 7 -1 4 -9 -3 -9 -12 -16 -20 -16 -13 0 -19 -13 -15 -33 1 -5 -3 -6 -9
-2 -5 3 -10 0 -10 -7 0 -9 -3 -9 -10 2 -7 11 -10 7 -11 -20 -1 -19 -1 -38 0
-43 0 -4 -2 -6 -6 -6 -25 4 -35 -3 -30 -21 3 -11 0 -20 -6 -20 -7 0 -19 -5
-27 -10 -13 -9 -13 -11 0 -20 10 -6 11 -10 3 -10 -7 0 -13 -12 -13 -27 0 -21
-3 -24 -12 -15 -19 19 -26 14 -20 -13 3 -17 0 -25 -9 -25 -12 0 -12 -2 0 -9
10 -7 10 -10 1 -16 -7 -4 -16 -2 -20 5 -5 8 -8 3 -9 -14 -1 -14 -3 -37 -4 -51
-1 -16 -8 -25 -19 -25 -10 0 -18 -4 -18 -10 0 -5 6 -10 13 -10 8 0 8 -3 -2 -9
-8 -5 -14 -23 -13 -39 0 -17 -6 -36 -14 -43 -10 -8 -14 -8 -14 0 0 6 5 11 10
11 6 0 10 4 10 8 0 5 -6 9 -14 9 -9 0 -13 -10 -12 -29 1 -16 -1 -31 -5 -34 -4
-2 -5 -13 -2 -23 3 -13 -2 -21 -17 -26 -18 -6 -20 -9 -9 -16 8 -5 9 -9 4 -9
-6 0 -12 -16 -13 -37 -3 -42 -10 -56 -23 -48 -5 4 -9 1 -9 -5 0 -7 7 -9 16 -6
12 5 15 2 10 -10 -3 -8 -6 -21 -7 -27 0 -7 -4 -3 -9 8 -7 17 -9 16 -10 -10 -5
-73 -7 -93 -14 -104 -4 -6 -3 -11 1 -11 5 0 7 -16 5 -35 -2 -19 -8 -35 -12
-35 -4 0 -5 11 -2 25 2 14 0 25 -5 25 -10 0 -15 -88 -17 -267 -1 -68 -5 -123
-10 -123 -5 0 -2 -8 5 -17 12 -14 12 -16 0 -8 -11 6 -12 5 -5 -6 5 -8 10 -52
11 -99 2 -137 6 -180 13 -180 4 0 7 10 6 22 0 11 6 23 14 25 12 4 12 3 1 -5
-9 -7 -10 -12 -2 -16 8 -5 8 -13 0 -28 -8 -15 -8 -22 1 -28 8 -5 9 -10 2 -14
-7 -4 -8 -16 -1 -35 6 -15 9 -32 8 -37 -4 -21 2 -34 14 -34 12 0 15 -16 20
-127 1 -18 7 -31 12 -30 6 2 10 9 10 15 0 5 3 13 6 17 4 3 6 -5 5 -17 0 -13
-8 -26 -16 -30 -12 -5 -12 -7 3 -7 16 -1 20 -13 20 -63 0 -11 7 -18 18 -18 16
0 19 -8 19 -45 0 -37 4 -47 21 -53 11 -5 20 -11 20 -15 -3 -29 1 -47 10 -45 6
2 13 -3 14 -10 2 -7 1 -8 -2 -2 -2 5 -9 8 -14 4 -11 -6 -12 -24 -1 -23 24 4
32 -3 28 -26 -4 -24 11 -31 25 -11 4 4 7 -2 7 -15 2 -47 9 -64 26 -61 12 2 16
-5 17 -30 1 -18 1 -36 0 -41 0 -4 2 -6 6 -6 23 4 33 -3 33 -24 0 -30 10 -40
26 -26 10 8 13 6 13 -8 -1 -38 9 -58 25 -55 15 3 22 -19 17 -53 -1 -5 6 -1 14
9 15 20 15 20 17 0 0 -10 1 -24 1 -31 0 -6 8 -10 17 -8 10 2 21 -3 24 -11 4
-10 1 -13 -7 -9 -6 4 -3 0 7 -9 10 -8 24 -13 30 -9 6 3 8 3 4 -2 -13 -14 11
-45 29 -38 12 5 15 2 10 -10 -6 -17 17 -42 31 -33 5 3 8 -5 8 -17 -3 -31 4
-40 19 -27 9 8 14 5 18 -11 3 -11 10 -19 14 -16 5 3 15 1 23 -5 13 -8 12 -9
-2 -5 -9 3 -19 0 -21 -7 -3 -8 1 -13 11 -12 9 0 17 -5 17 -13 0 -8 7 -16 15
-18 12 -4 12 -3 1 5 -10 7 -10 11 -1 17 7 4 13 -1 17 -14 3 -12 13 -21 24 -21
13 0 19 -7 19 -24 0 -19 4 -22 24 -19 21 4 24 2 19 -16 -4 -16 -1 -20 16 -16
18 3 25 -4 23 -26 -1 -6 16 -9 54 -11 17 0 20 -5 16 -21 -4 -16 -2 -19 11 -14
16 6 32 -8 32 -28 0 -10 5 -12 50 -14 18 -1 25 -7 25 -22 0 -14 5 -19 14 -16
8 3 17 3 21 -1 3 -4 14 -7 23 -7 10 0 16 -7 16 -17 -1 -11 5 -15 17 -13 11 2
19 -1 19 -6 0 -6 9 -7 20 -4 16 5 20 2 20 -15 0 -18 3 -19 20 -10 17 9 20 8
20 -7 0 -15 2 -16 10 -3 6 10 10 11 10 3 0 -7 7 -13 15 -13 8 0 13 -6 11 -12
-1 -7 -1 -10 1 -6 3 5 13 3 23 -2 10 -5 26 -7 34 -4 19 7 21 -7 4 -24 -7 -7
-8 -12 -2 -12 5 0 15 9 22 20 14 23 35 18 25 -5 -3 -11 2 -15 19 -15 13 0 30
-6 37 -12 11 -10 12 -10 7 -1 -5 9 1 12 18 11 14 -1 28 -8 31 -15 3 -10 0 -11
-14 -4 -13 7 -18 6 -18 -3 0 -9 19 -14 60 -15 48 -1 64 -6 79 -23 11 -13 18
-16 18 -8 0 11 3 11 12 2 7 -7 17 -12 22 -12 6 0 4 5 -4 10 -8 5 -10 10 -4 10
6 0 14 -3 18 -7 9 -10 30 -12 114 -15 39 -1 72 -5 72 -9 0 -4 -9 -6 -20 -4
-23 4 -27 -10 -5 -18 8 -4 17 -1 21 5 4 7 10 6 16 -3 8 -11 9 -10 4 3 -3 10 0
20 6 24 6 4 9 3 6 -2 -14 -22 33 -37 61 -20 9 6 12 5 7 -2 -7 -11 12 -11 32 1
7 5 12 3 12 -4 0 -8 3 -9 13 0 8 6 17 7 21 3 12 -11 160 -9 168 3 5 6 8 5 8
-4 0 -11 3 -11 17 0 9 8 14 9 10 3 -7 -12 51 -13 70 -1 6 4 14 3 18 -3 17 -28
23 13 21 148 -3 145 -9 187 -27 176 -5 -3 -9 0 -9 5 0 6 6 11 13 11 8 0 8 3 2
8 -10 6 -17 53 -18 118 -1 14 -7 21 -16 19 -9 -1 -14 -6 -11 -11 3 -5 9 -8 13
-6 5 1 6 -2 3 -7 -8 -12 -41 -7 -41 7 0 6 -3 14 -7 18 -4 3 -6 -3 -3 -14 3
-16 -1 -20 -18 -19 -12 0 -25 6 -29 12 -5 6 -8 5 -8 -3 0 -7 -5 -10 -10 -7 -6
4 -8 10 -5 15 3 5 1 11 -4 15 -6 3 -8 -3 -6 -15 4 -18 -1 -20 -60 -20 -41 0
-65 4 -68 13 -4 8 -6 7 -7 -3 0 -10 -6 -6 -16 10 -14 23 -14 23 -9 3 5 -17 2
-23 -9 -23 -9 0 -16 5 -16 10 0 6 -5 10 -11 10 -5 0 -8 -4 -5 -9 3 -5 -10 -9
-29 -8 -19 1 -35 5 -35 10 0 6 -5 6 -12 0 -20 -15 -43 -9 -40 10 2 14 -6 17
-60 18 -35 1 -69 1 -75 0 -7 -1 -13 8 -14 21 l0 23 -11 -22 c-6 -13 -15 -23
-20 -23 -5 0 -7 4 -4 8 10 17 -13 34 -48 34 -20 0 -36 4 -36 9 0 5 -5 9 -11 9
-5 0 -7 -5 -3 -12 4 -7 3 -8 -4 -4 -7 4 -12 14 -12 23 0 12 -3 13 -14 4 -10
-8 -16 -9 -21 -1 -3 5 -17 10 -31 10 -13 0 -24 5 -24 11 0 5 4 7 10 4 6 -3 7
1 4 10 -5 11 -10 13 -19 5 -6 -5 -15 -6 -19 -2 -4 4 -12 8 -17 8 -5 1 -13 2
-19 3 -5 0 -10 7 -10 15 0 8 -5 18 -11 22 -8 4 -9 0 -4 -15 4 -13 2 -21 -5
-21 -6 0 -9 4 -6 8 3 5 -4 16 -15 25 -10 9 -19 12 -19 7 0 -6 -5 -10 -11 -10
-5 0 -7 5 -3 12 5 8 0 9 -14 6 -29 -8 -28 0 1 12 18 7 15 9 -20 9 -36 1 -43 4
-43 21 0 16 -7 20 -32 21 -18 1 -36 1 -39 1 -4 -1 -5 7 -2 17 3 10 -1 22 -8
26 -8 6 -10 4 -4 -4 5 -9 2 -9 -14 0 -14 10 -17 15 -8 21 8 5 6 8 -6 8 -12 0
-16 4 -11 13 5 8 2 8 -9 -2 -15 -12 -17 -11 -17 7 0 14 -8 22 -22 24 -15 2
-22 9 -20 20 2 12 -2 16 -12 12 -11 -4 -19 3 -26 20 -6 17 -16 26 -27 24 -11
-2 -17 2 -15 11 2 11 0 12 -11 3 -16 -14 -28 -6 -20 14 4 12 -6 18 -28 16 -3
-1 -6 4 -7 11 -4 41 -9 53 -27 58 -11 3 -19 11 -17 18 1 7 -7 15 -18 18 -11 3
-20 14 -20 24 0 12 -7 19 -20 19 -13 0 -20 7 -20 20 0 18 -11 25 -33 21 -5 -1
-6 3 -2 9 3 6 10 8 15 5 5 -3 12 0 16 6 4 8 3 9 -4 5 -7 -4 -12 -2 -12 4 0 6
-4 8 -10 5 -5 -3 -10 3 -10 14 0 11 -9 22 -21 26 -17 6 -19 9 -8 16 11 7 11 9
1 9 -7 0 -10 5 -6 12 5 7 0 9 -14 6 -14 -4 -19 -2 -15 8 2 7 12 10 20 7 11 -4
14 -2 9 5 -4 7 -16 12 -26 12 -12 0 -17 6 -16 18 2 9 -4 20 -12 23 -14 5 -22
33 -25 85 -1 14 -6 20 -14 17 -7 -3 -10 -10 -6 -16 3 -5 2 -7 -4 -4 -8 5 -13
43 -17 120 0 15 -3 15 -18 -5 l-17 -23 2 23 c1 12 6 22 12 22 6 0 6 3 -1 8 -6
4 -12 15 -12 25 -4 41 -6 47 -15 47 -5 0 -4 7 3 16 11 13 10 16 -7 20 -17 5
-20 13 -18 45 1 21 -2 39 -7 39 -6 0 -5 6 1 14 10 12 8 17 -7 25 -11 6 -22 7
-26 3 -4 -3 -4 2 0 13 5 11 9 14 12 7 6 -20 17 -13 18 13 1 14 -2 25 -8 25 -5
0 -7 -4 -4 -8 3 -5 -1 -9 -8 -9 -7 0 -13 6 -13 13 0 7 4 11 9 8 12 -8 10 10
-4 24 -9 9 -9 12 1 12 7 0 9 5 4 13 -4 6 -8 99 -8 204 0 165 2 193 15 194 13
0 13 1 0 7 -14 6 -18 22 -10 37 1 3 3 10 4 15 0 6 7 14 14 19 7 4 14 25 15 47
1 21 6 45 11 53 5 8 5 12 0 9 -5 -4 -9 5 -9 18 0 13 3 24 8 24 4 0 7 -4 7 -10
0 -5 4 -10 8 -10 8 0 14 44 14 97 0 13 4 20 9 17 13 -8 11 10 -3 25 -11 10
-10 11 4 6 9 -4 19 -14 21 -23 2 -10 4 7 5 37 2 59 18 92 34 69 7 -9 8 -6 5 9
-3 13 -1 25 3 28 4 3 6 14 3 24 -3 10 1 22 8 27 9 5 10 2 5 -11 -5 -15 -4 -16
8 -6 8 7 13 21 11 33 -3 15 0 18 12 14 12 -5 13 -3 5 7 -7 8 -7 18 -2 27 8 12
10 11 11 -5 l0 -20 8 20 c5 11 6 26 4 33 -5 11 8 17 30 13 4 0 6 2 6 6 -5 29
3 62 17 67 10 4 13 2 8 -6 -5 -7 -3 -8 5 -3 7 4 11 16 8 26 -3 11 -1 19 5 19
5 0 6 5 2 11 -5 8 -1 8 14 0 19 -10 21 -8 24 26 2 21 9 38 18 41 13 5 13 3 1
-11 -7 -10 -9 -17 -3 -17 11 0 22 24 22 50 0 10 9 20 20 23 11 3 20 12 20 21
0 10 6 13 15 10 13 -6 16 -1 14 24 0 4 10 10 23 13 15 3 22 12 20 22 -2 11 4
17 18 17 13 0 20 7 20 20 0 11 3 19 8 19 20 -3 30 3 35 22 3 12 11 19 19 16
18 -6 48 11 48 28 0 9 10 15 24 15 16 0 23 5 22 16 -1 15 11 21 56 26 9 1 14
6 12 10 -3 5 -9 6 -14 3 -5 -3 -12 0 -16 6 -4 8 -3 9 4 5 6 -4 21 3 33 15 16
16 21 18 16 6 -3 -9 -2 -17 4 -17 6 0 13 9 16 20 3 11 9 18 13 15 5 -3 22 6
39 20 20 18 43 27 71 28 39 1 40 2 20 17 -19 14 -17 15 37 18 42 2 64 9 81 24
12 12 22 18 22 14 0 -4 9 -2 20 4 15 8 20 8 20 -2 0 -9 3 -10 8 -2 4 6 15 10
24 8 10 -1 20 2 23 6 3 5 -4 7 -15 5 -11 -2 -20 0 -20 6 0 5 10 9 23 10 12 1
47 3 77 5 30 2 63 4 72 5 10 0 20 5 23 10 4 5 11 6 17 3 7 -4 8 -2 4 4 -7 11
33 18 72 13 7 -1 15 5 18 13 3 9 9 14 13 12 4 -3 13 0 21 5 12 8 11 9 -4 7
-14 -2 -20 4 -23 27 -4 28 -3 29 10 11 11 -16 15 -16 22 -5 5 8 5 11 0 7 -18
-17 -35 33 -37 110 -1 67 -4 79 -17 75 -14 -4 -14 -4 -1 6 20 14 22 81 2 73
-10 -3 -11 -7 -2 -12 8 -5 7 -9 -3 -13 -20 -8 -15 22 6 38 9 7 17 16 17 21 0
4 -5 3 -12 -4 -19 -19 -23 -14 -25 33 0 25 -6 51 -12 59 -6 7 -8 16 -4 19 3 4
3 7 0 7 -4 0 -8 -3 -8 -7z m-325 -94 c-3 -5 -10 -7 -15 -3 -5 3 -7 10 -3 15 3
5 10 7 15 3 5 -3 7 -10 3 -15z m376 -93 c0 -2 -7 -6 -15 -10 -8 -3 -15 -1 -15
4 0 6 7 10 15 10 8 0 15 -2 15 -4z m-105 -306 c-3 -5 -10 -10 -16 -10 -5 0 -9
5 -9 10 0 6 7 10 16 10 8 0 12 -4 9 -10z m-285 -75 c-7 -8 -17 -15 -22 -15
-11 0 14 29 26 30 5 0 3 -7 -4 -15z m-805 -644 c3 -5 2 -12 -3 -15 -5 -3 -9 1
-9 9 0 17 3 19 12 6z m-675 -601 c0 -5 -2 -10 -4 -10 -3 0 -8 5 -11 10 -3 6
-1 10 4 10 6 0 11 -4 11 -10z m478 -714 c-7 -8 -15 -12 -17 -11 -5 6 10 25 20
25 5 0 4 -6 -3 -14z m-328 -396 c0 -5 -5 -10 -11 -10 -5 0 -7 5 -4 10 3 6 8
10 11 10 2 0 4 -4 4 -10z m680 -250 c0 -5 -5 -10 -11 -10 -5 0 -7 5 -4 10 3 6
8 10 11 10 2 0 4 -4 4 -10z m-520 -26 c0 -8 -19 -13 -24 -6 -3 5 1 9 9 9 8 0
15 -2 15 -3z m637 -89 c0 -8 -4 -12 -9 -9 -5 3 -6 10 -3 15 9 13 12 11 12 -6z
m-107 -485 c0 -5 -2 -10 -4 -10 -3 0 -8 5 -11 10 -3 6 -1 10 4 10 6 0 11 -4
11 -10z m117 -73 c0 -8 -6 -14 -14 -14 -9 0 -10 4 -2 14 6 7 12 13 14 13 1 0
2 -6 2 -13z m1328 -70 c1 -26 -2 -50 -7 -53 -5 -3 -8 -2 -7 3 1 4 0 10 -1 13
-8 17 -5 90 4 87 5 -2 10 -25 11 -50z m-705 -197 c0 -5 -2 -10 -4 -10 -3 0 -8
5 -11 10 -3 6 -1 10 4 10 6 0 11 -4 11 -10z m706 -46 c2 -12 -1 -13 -12 -3 -7
6 -11 16 -8 21 7 11 17 3 20 -18z"/>
<path d="M2875 7630 c-3 -5 -1 -10 4 -10 6 0 11 5 11 10 0 6 -2 10 -4 10 -3 0
-8 -4 -11 -10z"/>
<path d="M8110 7331 c0 -5 7 -11 14 -14 10 -4 13 -1 9 9 -6 15 -23 19 -23 5z"/>
<path d="M3237 7323 c-10 -9 -9 -23 1 -23 5 0 9 7 9 15 0 17 -1 18 -10 8z"/>
<path d="M6051 7248 c5 -10 11 -18 12 -18 2 0 3 8 3 18 0 10 -6 19 -13 19 -8
0 -9 -6 -2 -19z"/>
<path d="M3155 7230 c3 -5 8 -10 11 -10 2 0 4 5 4 10 0 6 -5 10 -11 10 -5 0
-7 -4 -4 -10z"/>
<path d="M6045 7205 c0 -12 5 -21 11 -18 6 2 11 10 11 18 0 8 -5 16 -11 18 -6
3 -11 -6 -11 -18z"/>
<path d="M6515 7201 c-3 -5 -2 -12 3 -15 5 -3 9 1 9 9 0 17 -3 19 -12 6z"/>
<path d="M6054 7165 c-4 -8 -4 -21 -1 -29 3 -8 1 -16 -6 -19 -7 -2 -5 -6 4 -9
12 -5 15 2 15 33 0 42 -3 48 -12 24z"/>
<path d="M8630 7085 c-8 -9 -8 -15 -2 -15 12 0 26 19 19 26 -2 2 -10 -2 -17
-11z"/>
<path d="M2237 6953 c-10 -9 -9 -23 1 -23 5 0 9 7 9 15 0 17 -1 18 -10 8z"/>
<path d="M8350 6889 c0 -5 5 -7 10 -4 6 3 10 8 10 11 0 2 -4 4 -10 4 -5 0 -10
-5 -10 -11z"/>
<path d="M7615 6790 c-3 -5 -1 -10 4 -10 6 0 11 5 11 10 0 6 -2 10 -4 10 -3 0
-8 -4 -11 -10z"/>
<path d="M2580 6629 c0 -5 5 -7 10 -4 6 3 10 8 10 11 0 2 -4 4 -10 4 -5 0 -10
-5 -10 -11z"/>
<path d="M2465 6519 c-4 -6 -4 -13 -1 -16 3 -4 6 -1 6 6 0 7 5 9 12 5 7 -4 8
-3 4 4 -9 15 -13 15 -21 1z"/>
<path d="M2427 6475 c3 -8 9 -12 14 -9 12 7 11 11 -5 17 -10 4 -13 1 -9 -8z"/>
<path d="M1723 6415 c0 -8 4 -15 9 -15 4 0 8 4 8 9 0 6 -4 12 -8 15 -5 3 -9
-1 -9 -9z"/>
<path d="M2357 6399 c7 -7 15 -10 18 -7 3 3 -2 9 -12 12 -14 6 -15 5 -6 -5z"/>
<path d="M6084 6383 c2 -9 9 -19 17 -21 11 -3 11 -1 -1 7 -11 8 -12 11 -2 11
7 0 10 5 7 10 -10 16 -23 12 -21 -7z"/>
<path d="M6550 6376 c0 -2 8 -10 18 -17 15 -13 16 -12 3 4 -13 16 -21 21 -21
13z"/>
<path d="M7893 6285 c0 -8 4 -15 9 -15 4 0 8 4 8 9 0 6 -4 12 -8 15 -5 3 -9
-1 -9 -9z"/>
<path d="M4675 6110 c-3 -5 -1 -10 4 -10 6 0 11 5 11 10 0 6 -2 10 -4 10 -3 0
-8 -4 -11 -10z"/>
<path d="M1656 6097 c3 -10 9 -15 12 -12 3 3 0 11 -7 18 -10 9 -11 8 -5 -6z"/>
<path d="M5750 5956 c0 -2 7 -6 15 -10 8 -3 15 -1 15 4 0 6 -7 10 -15 10 -8 0
-15 -2 -15 -4z"/>
<path d="M7785 5931 c3 -5 1 -12 -5 -16 -12 -7 -4 -25 12 -25 5 0 8 6 5 14 -3
7 0 19 6 25 8 8 6 11 -7 11 -9 0 -15 -4 -11 -9z"/>
<path d="M6596 5757 c3 -10 9 -15 12 -12 3 3 0 11 -7 18 -10 9 -11 8 -5 -6z"/>
<path d="M1865 5680 c7 -23 7 -24 -10 -10 -11 9 -16 10 -11 3 4 -7 2 -13 -4
-13 -6 0 -10 -7 -8 -16 2 -10 -4 -19 -12 -21 -12 -4 -12 -2 -2 5 10 7 10 11
-3 22 -13 11 -15 10 -10 -2 7 -18 -20 -42 -36 -32 -8 5 -9 3 -5 -5 5 -7 15
-10 23 -7 9 4 13 1 10 -6 -2 -7 -11 -12 -21 -10 -9 2 -16 -2 -16 -9 0 -8 -5
-7 -17 2 -14 10 -13 8 2 -10 11 -14 15 -22 10 -19 -14 9 -48 -18 -40 -31 3 -6
-2 -11 -13 -11 -21 0 -37 -26 -21 -34 5 -2 4 -3 -3 -2 -7 2 -12 11 -11 21 1
10 -2 14 -8 8 -5 -5 -11 -23 -12 -40 -1 -16 -7 -30 -14 -30 -9 0 -9 6 -2 21 8
16 6 16 -10 -4 -10 -13 -18 -27 -16 -30 2 -3 0 -12 -6 -20 -7 -12 -9 -9 -10
10 0 22 -2 21 -13 -10 -13 -35 -12 -55 3 -46 4 3 8 -1 8 -9 0 -8 -4 -12 -9 -9
-4 3 -8 0 -8 -5 0 -6 9 -11 20 -11 13 0 20 -7 20 -20 0 -11 4 -20 10 -20 5 0
7 8 3 18 -5 14 -3 13 10 -3 9 -11 17 -28 17 -38 0 -9 3 -16 8 -16 24 4 40 -3
38 -18 0 -10 5 -18 13 -18 8 0 15 -8 17 -18 3 -23 14 -36 14 -17 0 10 3 10 15
0 8 -6 20 -8 27 -4 7 4 4 -3 -7 -16 l-20 -23 24 13 c13 6 21 7 17 2 -3 -6 -2
-13 4 -17 6 -4 7 -11 4 -17 -4 -7 -2 -8 5 -4 6 4 9 11 7 15 -3 4 1 8 9 8 11 0
12 -5 3 -21 -6 -12 -7 -18 -3 -14 4 4 16 -4 27 -17 11 -14 26 -25 34 -25 8 0
14 -5 14 -11 0 -5 5 -7 10 -4 6 4 9 2 8 -4 -2 -5 5 -16 15 -23 10 -7 19 -22
21 -33 1 -11 12 -24 24 -30 12 -5 20 -15 18 -22 -3 -7 1 -10 9 -6 8 3 12 10 8
17 -3 6 0 5 8 -2 12 -11 12 -14 -1 -22 -13 -8 -12 -10 4 -10 13 0 17 -5 13
-19 -3 -14 0 -19 12 -16 28 5 61 -13 55 -30 -4 -10 0 -15 15 -15 12 0 21 -6
21 -15 0 -9 11 -20 25 -25 18 -7 23 -14 18 -26 -5 -14 -2 -16 16 -11 17 4 21
2 17 -9 -6 -14 27 -38 38 -27 3 3 6 -5 6 -19 0 -22 4 -25 22 -20 12 3 19 1 15
-4 -7 -12 8 -38 23 -40 23 -3 24 -5 10 -14 -13 -8 -12 -10 5 -11 11 -1 24 -1
29 0 5 1 6 -7 3 -18 -3 -14 1 -21 19 -25 13 -4 24 -13 24 -21 0 -14 12 -19 33
-16 4 0 7 -8 7 -19 0 -13 7 -20 20 -20 13 0 20 -7 20 -20 0 -13 7 -20 20 -20
13 0 20 -7 20 -20 0 -14 7 -20 21 -20 14 0 19 -5 16 -14 -3 -8 1 -17 9 -20 23
-9 26 -7 18 7 -4 7 -3 9 2 4 9 -9 10 -13 13 -42 0 -8 4 -14 9 -14 21 4 31 -3
26 -16 -4 -9 0 -15 10 -15 8 0 20 -9 26 -20 6 -11 17 -20 26 -20 9 0 14 -7 12
-17 -2 -12 3 -17 13 -15 9 1 22 -5 30 -14 10 -13 10 -17 -1 -24 -9 -6 -6 -8
11 -9 56 -1 56 -2 61 -58 1 -7 4 -11 7 -9 3 2 20 -3 36 -10 19 -8 23 -13 13
-14 -10 0 -18 -4 -18 -9 0 -6 9 -8 20 -6 15 3 20 -2 20 -20 0 -16 5 -22 18
-21 10 2 19 -5 23 -18 3 -13 12 -20 22 -18 11 2 17 -4 17 -17 0 -11 5 -23 10
-26 6 -3 10 -1 10 5 0 6 5 8 10 5 6 -3 10 -15 10 -26 0 -18 9 -22 50 -22 9 0
16 -7 17 -16 2 -26 9 -50 16 -57 3 -4 5 3 2 15 -2 11 0 21 6 21 8 0 13 -15 10
-32 0 -5 3 -9 9 -9 5 -1 15 -2 22 -3 10 -1 17 -20 20 -53 1 -7 5 -10 10 -7 5
3 6 10 3 15 -4 5 -2 9 3 9 5 0 13 -15 19 -32 5 -18 9 -26 8 -17 -1 9 3 16 10
16 7 0 12 -9 10 -19 -4 -16 11 -23 38 -19 4 0 6 -2 6 -6 -5 -30 2 -44 19 -39
12 4 19 1 19 -8 0 -8 -6 -12 -14 -9 -7 3 -13 0 -13 -7 0 -6 4 -9 9 -6 4 3 17
-1 27 -9 10 -8 24 -14 29 -15 6 0 3 5 -5 10 -12 8 -9 9 10 6 30 -4 51 10 43
30 -3 8 0 14 6 14 6 0 11 -6 11 -12 0 -8 7 -5 15 6 12 16 12 22 2 29 -9 7 -8
8 3 4 14 -4 41 15 40 28 0 3 3 5 6 4 3 0 12 8 21 18 8 10 11 12 7 4 -5 -10 -3
-12 5 -7 9 6 9 11 0 22 -8 9 -8 14 -1 14 6 0 16 -8 22 -17 8 -14 10 -14 9 -3
-1 8 -1 26 0 39 1 24 1 24 23 5 19 -15 20 -16 9 -1 -12 14 -11 17 2 17 10 0
15 7 12 19 -2 14 1 18 11 14 7 -3 11 -10 7 -16 -3 -6 -1 -7 6 -3 6 4 9 12 6
17 -4 5 -1 9 5 9 6 0 9 4 6 8 -2 4 0 14 6 22 8 12 9 12 4 -2 -3 -10 -1 -20 4
-23 9 -6 13 8 13 50 0 30 -3 34 -18 29 -11 -5 -13 -2 -9 10 4 11 1 16 -11 16
-10 0 -13 5 -9 12 5 8 2 9 -10 5 -11 -4 -15 -3 -11 4 4 6 -2 13 -14 16 -12 3
-22 9 -22 14 -1 5 -2 15 -3 22 -1 6 -8 11 -15 9 -8 -2 -11 3 -8 12 4 9 1 18
-5 22 -7 4 -8 3 -4 -4 4 -7 3 -12 -2 -12 -12 0 -24 29 -17 41 4 5 -1 6 -9 3
-9 -3 -13 -10 -10 -15 3 -5 0 -9 -5 -9 -15 0 -14 13 2 29 8 10 8 12 0 7 -6 -3
-14 -2 -18 4 -4 6 -10 8 -15 5 -5 -3 -11 -1 -15 5 -3 5 -1 10 5 10 6 0 8 5 5
10 -3 6 -18 10 -33 10 l-27 1 30 14 c19 10 22 13 8 9 -13 -3 -23 -1 -23 5 0 6
-9 11 -20 11 -11 0 -20 7 -20 15 0 14 -5 16 -27 14 -5 0 -10 10 -13 23 -3 13
-12 23 -20 23 -8 0 -17 11 -21 25 -4 14 -7 19 -8 11 -1 -19 -31 6 -31 26 0 9
-6 13 -15 9 -13 -5 -20 5 -16 27 0 4 -8 7 -19 7 -13 0 -20 7 -20 20 0 13 -7
20 -20 20 -14 0 -20 6 -18 18 2 11 -4 18 -19 20 -15 2 -23 10 -23 23 0 12 -7
19 -19 19 -14 0 -19 6 -16 19 3 15 -2 19 -19 17 -18 -2 -23 2 -22 18 1 11 -5
21 -11 22 -7 1 -17 2 -23 3 -5 0 -7 8 -4 16 5 11 -1 15 -20 15 -19 0 -24 4
-19 16 4 10 -1 17 -16 21 -12 3 -21 13 -21 25 0 12 -6 18 -17 16 -10 -2 -19 5
-22 20 -3 13 -9 23 -13 23 -24 -2 -28 1 -28 18 0 14 -6 19 -20 16 -11 -2 -19
-1 -19 3 3 21 -3 31 -22 37 -12 4 -18 12 -15 21 3 9 -1 14 -14 14 -13 0 -20 7
-20 20 0 13 -7 20 -20 20 -18 0 -25 11 -21 33 1 4 -6 7 -16 5 -11 -2 -19 6
-24 22 -4 14 -7 19 -8 12 -1 -10 -5 -10 -17 2 -8 9 -20 14 -25 11 -5 -4 -6 1
-3 9 4 11 0 16 -11 16 -9 0 -13 5 -9 11 4 8 -1 9 -17 5 l-24 -7 25 16 c24 16
24 16 3 12 -13 -3 -24 -1 -24 4 -1 5 -2 14 -3 21 0 6 -11 12 -23 13 -24 2 -45
15 -25 15 17 0 15 17 -4 24 -8 3 -12 2 -9 -3 3 -5 1 -13 -5 -16 -6 -4 -10 -3
-9 2 6 32 -3 53 -21 53 -13 0 -20 7 -20 20 0 13 -7 20 -20 20 -13 0 -20 7 -20
20 0 11 -3 19 -7 19 -23 -4 -33 3 -33 22 0 18 -2 20 -16 9 -8 -8 -14 -9 -13
-4 2 5 -1 19 -5 32 -7 20 -10 21 -24 10 -12 -10 -14 -10 -8 0 6 11 -5 17 -26
13 -5 0 -8 8 -8 19 0 13 -7 20 -18 20 -11 0 -23 13 -31 35 -7 19 -18 35 -26
35 -16 0 -28 27 -14 34 5 2 4 3 -3 2 -7 -2 -12 -10 -10 -20 4 -25 -7 -19 -18
9 -6 16 -14 23 -25 19 -8 -3 -15 -1 -15 6 0 6 5 8 10 5 6 -3 10 -2 10 3 0 5
-13 15 -30 22 -16 7 -29 15 -28 19 2 21 -5 29 -24 25 -13 -2 -17 -2 -10 2 6 3
12 10 12 15 0 6 -4 7 -10 4 -9 -5 -15 15 -11 38 0 4 -2 6 -6 6 -21 -3 -32 3
-38 20 -4 12 -12 18 -21 14 -12 -4 -19 11 -16 38 1 3 -6 6 -14 6 -10 0 -11 -4
-4 -11 5 -5 10 -15 10 -20 -1 -6 -10 0 -22 14 l-21 25 8 -25z m75 -50 c0 -5
-2 -10 -4 -10 -3 0 -8 5 -11 10 -3 6 -1 10 4 10 6 0 11 -4 11 -10z m35 -31
c11 -16 1 -19 -13 -3 -7 8 -8 14 -3 14 5 0 13 -5 16 -11z m190 -190 c11 -17
-1 -21 -15 -4 -8 9 -8 15 -2 15 6 0 14 -5 17 -11z m-490 -139 c3 -5 1 -10 -4
-10 -6 0 -11 5 -11 10 0 6 2 10 4 10 3 0 8 -4 11 -10z m202 -197 c0 -9 -4 -10
-14 -2 -7 6 -13 12 -13 14 0 1 6 2 13 2 8 0 14 -6 14 -14z m113 -113 c0 -5 -7
-7 -15 -4 -8 4 -12 10 -9 15 6 11 24 2 24 -11z m75 -69 c3 -5 1 -12 -5 -16 -5
-3 -10 1 -10 9 0 18 6 21 15 7z m870 -841 c3 -5 1 -10 -4 -10 -6 0 -11 5 -11
10 0 6 2 10 4 10 3 0 8 -4 11 -10z"/>
<path d="M8531 5470 c1 -195 3 -230 16 -230 9 0 11 5 7 13 -6 9 -5 9 7 0 12
-10 186 -13 771 -13 588 0 757 -3 760 -13 2 -6 3 -366 3 -799 -1 -539 2 -789
10 -791 5 -3 27 -3 48 -2 20 2 39 0 41 -4 3 -4 -17 -7 -43 -6 -28 1 -48 -4
-48 -10 0 -12 76 -14 95 -2 7 5 12 3 12 -5 0 -9 3 -9 10 2 5 8 10 10 10 5 0
-6 14 -11 30 -10 20 0 29 4 26 12 -7 17 13 28 27 14 8 -8 8 -11 -1 -11 -7 0
-12 -5 -12 -11 0 -8 5 -8 15 1 12 10 15 10 15 -1 0 -12 2 -12 9 0 7 11 9 11
13 0 3 -9 6 -9 11 3 4 13 1 16 -14 13 -10 -2 -19 0 -19 6 0 13 45 4 46 -9 3
-22 4 -23 23 -12 14 7 21 6 24 -3 4 -9 6 -9 6 1 1 8 6 10 13 6 18 -11 68 -12
74 -2 3 5 12 4 20 -3 8 -7 14 -7 14 -1 0 15 -19 19 -92 17 -38 -1 -68 1 -68 5
0 3 28 5 63 5 34 0 65 4 69 10 5 6 8 6 8 -2 0 -7 6 -10 13 -8 9 4 12 220 11
1033 l0 1027 -1012 3 -1012 2 1 -230z m34 -88 c-3 -3 -11 0 -18 7 -9 10 -8 11
6 5 10 -3 15 -9 12 -12z m1702 -1756 c-3 -6 -11 -9 -18 -7 -8 2 -20 4 -26 4
-28 1 -11 14 17 14 18 0 29 -5 27 -11z"/>
<path d="M7275 5661 c-3 -5 -2 -12 3 -15 5 -3 9 1 9 9 0 17 -3 19 -12 6z"/>
<path d="M6600 5590 c-10 -6 -11 -10 -2 -10 6 0 12 -5 12 -11 0 -5 -4 -8 -9
-5 -11 7 -9 -13 2 -31 5 -8 3 -13 -5 -13 -9 0 -9 -3 2 -10 8 -5 10 -10 3 -10
-13 0 -11 -32 3 -37 5 -2 10 28 10 67 0 38 0 70 -1 70 0 0 -7 -5 -15 -10z"/>
<path d="M2055 5541 c-3 -5 -2 -12 3 -15 5 -3 9 1 9 9 0 17 -3 19 -12 6z"/>
<path d="M2240 5350 c0 -5 5 -10 11 -10 5 0 7 5 4 10 -3 6 -8 10 -11 10 -2 0
-4 -4 -4 -10z"/>
<path d="M3868 5178 c2 -10 7 -18 11 -18 4 0 7 8 8 18 1 10 -4 19 -11 19 -8 0
-11 -8 -8 -19z"/>
<path d="M10067 5189 c7 -7 15 -10 18 -7 3 3 -2 9 -12 12 -14 6 -15 5 -6 -5z"/>
<path d="M7350 5139 c0 -5 5 -7 10 -4 6 3 10 8 10 11 0 2 -4 4 -10 4 -5 0 -10
-5 -10 -11z"/>
<path d="M1880 5031 c0 -6 4 -13 10 -16 6 -3 7 1 4 9 -7 18 -14 21 -14 7z"/>
<path d="M1914 4989 c-4 -7 -3 -9 4 -5 5 3 13 0 15 -6 4 -9 6 -10 6 -1 1 17
-16 25 -25 12z"/>
<path d="M6636 4937 c3 -10 9 -15 12 -12 3 3 0 11 -7 18 -10 9 -11 8 -5 -6z"/>
<path d="M7940 4925 c-11 -13 -10 -14 4 -9 9 3 16 10 16 15 0 13 -6 11 -20 -6z"/>
<path d="M6633 4895 c0 -8 4 -12 9 -9 5 3 6 10 3 15 -9 13 -12 11 -12 -6z"/>
<path d="M2073 4835 c0 -8 4 -12 9 -9 4 3 8 9 8 15 0 5 -4 9 -8 9 -5 0 -9 -7
-9 -15z"/>
<path d="M8205 4551 c-3 -5 -2 -12 3 -15 5 -3 9 1 9 9 0 17 -3 19 -12 6z"/>
<path d="M8470 4310 c0 -5 5 -10 10 -10 6 0 10 5 10 10 0 6 -4 10 -10 10 -5 0
-10 -4 -10 -10z"/>
<path d="M7805 4271 c-6 -11 13 -26 22 -17 4 3 1 6 -6 6 -7 0 -9 5 -6 10 3 6
4 10 1 10 -3 0 -7 -4 -11 -9z"/>
<path d="M6673 4245 c0 -8 4 -12 9 -9 5 3 6 10 3 15 -9 13 -12 11 -12 -6z"/>
<path d="M6207 4233 c-2 -5 -4 -23 -3 -41 0 -17 -3 -32 -7 -32 -5 0 -5 -6 0
-12 12 -21 13 -69 1 -62 -7 5 -8 2 -2 -7 5 -8 9 -17 9 -21 0 -3 4 -10 9 -15 5
-4 6 -3 2 4 -3 6 -2 14 4 18 7 4 7 12 0 26 -6 10 -7 19 -2 19 4 0 8 9 8 19 0
11 -4 17 -8 15 -11 -7 -10 4 3 28 7 14 8 18 0 14 -6 -4 -9 4 -6 24 3 29 1 38
-8 23z"/>
<path d="M7850 4230 c-9 -6 -10 -10 -3 -10 6 0 15 5 18 10 8 12 4 12 -15 0z"/>
<path d="M2795 4150 c3 -5 11 -10 16 -10 6 0 7 5 4 10 -3 6 -11 10 -16 10 -6
0 -7 -4 -4 -10z"/>
<path d="M3585 4050 c-3 -5 -1 -10 4 -10 6 0 11 5 11 10 0 6 -2 10 -4 10 -3 0
-8 -4 -11 -10z"/>
<path d="M9146 4044 c-5 -13 11 -13 31 -1 6 4 14 3 18 -3 7 -11 25 -4 25 9 0
13 -69 9 -74 -5z"/>
<path d="M3690 3931 c0 -6 4 -13 10 -16 6 -3 7 1 4 9 -7 18 -14 21 -14 7z"/>
<path d="M6195 3931 c-3 -5 -2 -12 3 -15 5 -3 9 1 9 9 0 17 -3 19 -12 6z"/>
<path d="M3066 3883 c-6 -14 -5 -15 5 -6 7 7 10 15 7 18 -3 3 -9 -2 -12 -12z"/>
<path d="M5565 3851 c-3 -5 -1 -12 4 -15 5 -3 11 1 15 9 6 16 -9 21 -19 6z"/>
<path d="M3150 3810 c-9 -6 -10 -10 -3 -10 6 0 15 5 18 10 8 12 4 12 -15 0z"/>
<path d="M4794 3768 c-3 -4 2 -8 10 -8 8 0 17 4 20 8 3 5 -2 9 -10 9 -8 0 -17
-4 -20 -9z"/>
<path d="M10064 3740 c0 -13 4 -16 10 -10 7 7 7 13 0 20 -6 6 -10 3 -10 -10z"/>
<path d="M3261 3694 c0 -11 3 -14 6 -6 3 7 2 16 -1 19 -3 4 -6 -2 -5 -13z"/>
<path d="M8665 3699 c-4 -6 -5 -12 -2 -15 2 -3 7 2 10 11 7 17 1 20 -8 4z"/>
<path d="M3376 3611 c-4 -5 3 -7 14 -4 23 6 26 13 6 13 -8 0 -17 -4 -20 -9z"/>
<path d="M853 3575 c0 -8 4 -12 9 -9 5 3 6 10 3 15 -9 13 -12 11 -12 -6z"/>
<path d="M1090 3587 c0 -2 6 -10 14 -16 11 -9 16 -9 22 1 4 7 4 10 -1 6 -4 -4
-14 -3 -22 3 -7 6 -13 9 -13 6z"/>
<path d="M9075 3570 c3 -5 8 -10 11 -10 2 0 4 5 4 10 0 6 -5 10 -11 10 -5 0
-7 -4 -4 -10z"/>
</g>
</svg>
